<svg width="32" height="32" viewBox="0 0 32 32" fill="none" xmlns="http://www.w3.org/2000/svg">
  <!-- Background circle with gradient -->
  <circle cx="16" cy="16" r="16" fill="url(#gradient)"/>
  
  <!-- Book icon -->
  <path d="M8 6a2 2 0 0 0-2 2v16a2 2 0 0 0 2 2h16a2 2 0 0 0 2-2V8a2 2 0 0 0-2-2H8z" fill="white" opacity="0.9"/>
  <path d="M8 6a2 2 0 0 0-2 2v16a2 2 0 0 0 2 2h16a2 2 0 0 0 2-2V8a2 2 0 0 0-2-2H8z" fill="none" stroke="white" stroke-width="1" opacity="0.3"/>
  
  <!-- Book spine -->
  <rect x="15" y="6" width="2" height="20" fill="url(#gradient)" opacity="0.6"/>
  
  <!-- Progress indicators -->
  <circle cx="11" cy="12" r="1.5" fill="url(#gradient)"/>
  <circle cx="11" cy="16" r="1.5" fill="url(#gradient)" opacity="0.7"/>
  <circle cx="11" cy="20" r="1.5" fill="url(#gradient)" opacity="0.4"/>
  
  <!-- Checkmark -->
  <path d="M19 11l-2 2-1-1" stroke="url(#gradient)" stroke-width="1.5" stroke-linecap="round" stroke-linejoin="round" fill="none"/>
  
  <!-- Gradient definitions -->
  <defs>
    <linearGradient id="gradient" x1="0%" y1="0%" x2="100%" y2="100%">
      <stop offset="0%" style="stop-color:#36eee0"/>
      <stop offset="100%" style="stop-color:#f652a0"/>
    </linearGradient>
  </defs>
</svg>